#!OML:ASF H:\Male1\Project 1\Capture day 1\Session 1\Male1.ASF
:FULLY-SPECIFIED
:DEGREES
283
root 10.5584 13.9727 1.78756 181.461 -0.0137251 -172.102
lowerback 21.6046 0.526556 1.91923
upperback 7.77479 2.66334 -0.111043
thorax -3.51853 1.99482 -1.88854
lowerneck 2.91049 8.03342 10.3189
upperneck -20.443 9.25127 -9.85865
head -5.60262 3.9467 -5.23808
rclavicle 7.95139e-015 -3.18055e-015
rhumerus -49.7332 14.2743 -94.4087
rradius 62.9151
rwrist -42.4986
rhand -34.5646 -7.52051
rfingers 7.12502
rthumb -7.72456 -37.3594
lclavicle 7.95139e-015 -3.18055e-015
lhumerus -33.7236 4.34882 85.6241
lradius 43.4191
lwrist 29.5378
lhand -31.965 30.712
lfingers 7.12502
lthumb -5.21497 60.6278
rfemur -30.2453 2.03023 31.6887
rtibia 60.0392
rfoot -28.9173 -25.5038
rtoes -22.6477
lfemur -31.002 -5.1302 -10.5307
ltibia 65.6142
lfoot -32.4212 12.1271
ltoes -7.25396
284
root 10.5649 13.9778 1.81207 181.866 0.225699 -172.27
lowerback 21.7078 0.480182 1.65634
upperback 7.94971 2.58369 -0.279623
thorax -3.38644 1.97515 -1.89933
lowerneck 3.12777 8.20753 10.4007
upperneck -21.1105 9.43745 -9.93131
head -5.81934 3.99289 -5.31605
rclavicle 3.89618e-014 7.95139e-016
rhumerus -49.2069 13.4386 -94.2717
rradius 62.2237
rwrist -41.9333
rhand -34.4998 -6.61505
rfingers 7.12502
rthumb -7.66197 -36.4562
lclavicle 3.89618e-014 7.95139e-016
lhumerus -34.4138 4.17101 85.9391
lradius 43.4633
lwrist 29.8494
lhand -31.2853 29.8449
lfingers 7.12502
lthumb -4.55861 59.7758
rfemur -31.0668 2.69922 31.5862
rtibia 60.6468
rfoot -29.1208 -25.7085
rtoes -21.2514
lfemur -31.7307 -5.80201 -10.7196
ltibia 66.3423
lfoot -32.2968 13.286
ltoes -8.3299
285
root 10.5579 14.0406 1.82922 182.404 0.44482 -172.692
lowerback 21.5722 0.442552 1.37874
upperback 8.03818 2.47127 -0.552846
thorax -3.22337 1.92638 -1.99769
lowerneck 3.30946 8.35134 10.461
upperneck -21.5219 9.60885 -10.0126
head -5.9527 4.05254 -5.38164
rclavicle -6.36111e-015 3.10104e-014
rhumerus -49.0561 12.4555 -94.1384
rradius 62.1655
rwrist -41.7478
rhand -34.7885 -6.12025
rfingers 7.12502
rthumb -7.94061 -35.9511
lclavicle -6.36111e-015 3.10104e-014
lhumerus -34.9284 4.28855 85.9694
lradius 43.2909
lwrist 28.2512
lhand -30.3831 28.2646
lfingers 7.12502
lthumb -3.68742 58.2124
rfemur -31.4794 3.66223 31.0563
rtibia 60.3329
rfoot -29.0801 -25.9122
rtoes -19.7282
lfemur -32.0428 -6.92468 -11.1975
ltibia 65.8792
lfoot -31.4817 14.611
ltoes -8.8724
286
root 10.5415 14.1551 1.84066 182.923 0.664341 -173.356
lowerback 21.3026 0.408117 0.998901
upperback 8.1055 2.33037 -0.898402
thorax -3.01644 1.85925 -2.10357
lowerneck 3.45652 8.5049 10.5055
upperneck -21.6753 9.8208 -10.1148
head -5.99442 4.15475 -5.43978
rclavicle 1.59028e-014 1.98785e-014
rhumerus -49.0118 11.6354 -94.0665
rradius 62.2819
rwrist -42.2263
rhand -35.2769 -6.07508
rfingers 7.12502
rthumb -8.412 -35.8876
lclavicle 1.59028e-014 1.98785e-014
lhumerus -35.0607 4.83437 85.7006
lradius 42.5326
lwrist 24.9828
lhand -29.436 26.3492
lfingers 7.12502
lthumb -2.77275 56.3109
rfemur -31.4431 4.69932 30.1744
rtibia 59.2508
rfoot -28.4856 -26.1344
rtoes -18.5766
lfemur -31.8435 -8.18039 -11.9565
ltibia 64.416
lfoot -30.073 15.9625
ltoes -9.67531
287
root 10.5216 14.317 1.84715 183.281 0.907745 -174.217
lowerback 21.0491 0.392153 0.484843
upperback 8.17829 2.19741 -1.29233
thorax -2.81262 1.7973 -2.18773
lowerneck 3.54338 8.65443 10.544
upperneck -21.561 10.0579 -10.195
head -5.94088 4.28742 -5.47541
rclavicle 1.43125e-014 -1.90833e-014
rhumerus -48.9476 11.1343 -94.1243
rradius 62.3032
rwrist -43.1215
rhand -35.8704 -6.50754
rfingers 7.12502
rthumb -8.98474 -36.2962
lclavicle 1.43125e-014 -1.90833e-014
lhumerus -34.7662 5.6317 85.182
lradius 41.0884
lwrist 21.0125
lhand -28.6699 24.5875
lfingers 7.12502
lthumb -2.03294 54.5575
rfemur -30.9275 5.44493 29.0509
rtibia 57.5895
rfoot -27.0938 -26.4877
rtoes -18.7202
lfemur -31.0241 -9.36601 -12.9594
ltibia 62.1802
lfoot -28.2641 17.2488
ltoes -10.5829
288
root 10.5022 14.5107 1.85112 183.488 1.16046 -175.406
lowerback 20.8191 0.422018 -0.385132
upperback 8.24557 2.06766 -1.72959
thorax -2.63233 1.73388 -2.11835
lowerneck 3.56243 8.79825 10.5489
upperneck -21.2704 10.3006 -10.2405
head -5.82421 4.43354 -5.48275
rclavicle 2.98177e-014 1.59028e-014
rhumerus -48.8068 10.9944 -94.2791
rradius 62.109
rwrist -43.9212
rhand -36.2078 -7.11936
rfingers 7.12502
rthumb -9.31027 -36.8938
lclavicle 2.98177e-014 1.59028e-014
lhumerus -34.1679 6.5522 84.5357
lradius 39.1875
lwrist 17.4592
lhand -28.1272 23.3626
lfingers 7.12502
lthumb -1.50876 53.337
rfemur -30.0579 5.84783 27.5783
rtibia 55.4987
rfoot -24.9587 -26.8552
rtoes -20.1108
lfemur -29.6942 -10.3734 -14.3427
ltibia 59.3266
lfoot -26.2084 18.307
ltoes -11.2533
289
root 10.4922 14.7217 1.85059 183.594 1.38772 -176.011
lowerback 20.5676 0.423692 -0.800138
upperback 8.30728 1.99573 -1.98039
thorax -2.43995 1.7004 -2.1213
lowerneck 3.51043 8.9421 10.6004
upperneck -20.9411 10.5336 -10.3143
head -5.67977 4.57287 -5.49944
rclavicle -1.90833e-014 0
rhumerus -48.5753 11.1249 -94.5365
rradius 61.7036
rwrist -44.2626
rhand -35.9963 -7.39845
rfingers 7.12502
rthumb -9.10626 -37.1819
lclavicle -1.90833e-014 0
lhumerus -33.4027 7.49697 83.758
lradius 37.1373
lwrist 14.6892
lhand -27.3087 22.6469
lfingers 7.12502
lthumb -0.718274 52.6255
rfemur -28.8845 6.24921 26.7309
rtibia 53.0241
rfoot -22.9034 -26.8764
rtoes -20.3675
lfemur -28.1041 -10.9171 -15.0282
ltibia 56.1527
lfoot -24.1133 18.8088
ltoes -11.5295
290
root 10.4878 14.9321 1.84792 183.683 1.54844 -176.274
lowerback 20.2788 0.39834 -0.982621
upperback 8.34338 1.92586 -2.09241
thorax -2.25611 1.66321 -2.10847
lowerneck 3.39495 9.09768 10.635
upperneck -20.6739 10.7548 -10.4152
head -5.54395 4.70137 -5.51995
rclavicle 2.46493e-014 -1.82882e-014
rhumerus -48.3113 11.5053 -94.8375
rradius 61.2159
rwrist -44.1247
rhand -35.3434 -7.12112
rfingers 7.12502
rthumb -8.47623 -36.931
lclavicle 2.46493e-014 -1.82882e-014
lhumerus -32.6107 8.38649 82.9475
lradius 35.2245
lwrist 12.8164
lhand -26.2653 22.1751
lfingers 7.12502
lthumb 0.289539 52.1546
rfemur -27.5751 6.51202 26.2744
rtibia 50.316
rfoot -20.838 -26.782
rtoes -20.4468
lfemur -26.4755 -11.0943 -15.2982
ltibia 52.8597
lfoot -22.1542 18.8261
ltoes -11.3373
291
root 10.4872 15.1314 1.8442 183.774 1.64829 -176.347
lowerback 19.9698 0.349695 -1.05262
upperback 8.36322 1.84076 -2.11503
thorax -2.08089 1.61464 -2.06135
lowerneck 3.18913 9.25837 10.6501
upperneck -20.4973 10.9427 -10.5683
head -5.42122 4.80722 -5.55103
rclavicle -2.38542e-015 -2.3059e-014
rhumerus -48.0293 12.0543 -95.1289
rradius 60.7679
rwrist -43.6368
rhand -34.5403 -6.31483
rfingers 7.12502
rthumb -7.70111 -36.1546
lclavicle -2.38542e-015 -2.3059e-014
lhumerus -31.9022 9.13525 82.1388
lradius 33.7227
lwrist 11.463
lhand -25.0042 21.7753
lfingers 7.12502
lthumb 1.50747 51.7497
rfemur -26.1924 6.60638 26.0572
rtibia 47.4576
rfoot -18.9265 -26.5934
rtoes -20.3998
lfemur -24.9107 -10.9836 -15.3194
ltibia 49.6085
lfoot -20.5259 18.4475
ltoes -10.8496
292
root 10.4903 15.3097 1.83916 183.843 1.71936 -176.308
lowerback 19.6709 0.294521 -1.066
upperback 8.37561 1.75532 -2.09326
thorax -1.91901 1.56461 -2.00056
lowerneck 2.86847 9.40528 10.6262
upperneck -20.359 11.0813 -10.7192
head -5.29833 4.88233 -5.56898
rclavicle 9.14409e-015 3.73715e-014
rhumerus -47.7555 12.6485 -95.3851
rradius 60.4569
rwrist -43.0224
rhand -33.7705 -5.15843
rfingers 7.12502
rthumb -6.95801 -35.0241
lclavicle 9.14409e-015 3.73715e-014
lhumerus -31.3491 9.56419 81.3701
lradius 32.7862
lwrist 10.3579
lhand -23.6907 21.2812
lfingers 7.12502
lthumb 2.77611 51.2429
rfemur -24.7436 6.56884 26.014
rtibia 44.5695
rfoot -17.3889 -26.3483
rtoes -20.3023
lfemur -23.4054 -10.6816 -15.185
ltibia 46.4563
lfoot -19.2966 17.8398
ltoes -11.0762
293
root 10.4956 15.4571 1.83369 183.886 1.78799 -176.294
lowerback 19.3936 0.25151 -1.12924
upperback 8.37997 1.67653 -2.07747
thorax -1.77676 1.51682 -1.92108
lowerneck 2.4492 9.53326 10.5363
upperneck -20.2406 11.1783 -10.7962
head -5.17909 4.92871 -5.54807
rclavicle 1.98785e-014 1.90833e-014
rhumerus -47.5067 13.2052 -95.5843
rradius 60.3408
rwrist -42.4409
rhand -33.1952 -4.02176
rfingers 7.12502
rthumb -6.40264 -33.905
lclavicle 1.98785e-014 1.90833e-014
lhumerus -31.0089 9.57444 80.6745
lradius 32.5177
lwrist 9.33537
lhand -22.4846 20.6014
lfingers 7.12502
lthumb 3.9408 50.5447
rfemur -23.2646 6.43891 26.0026
rtibia 41.7703
rfoot -16.3731 -26.0791
rtoes -20.2022
lfemur -21.9493 -10.3657 -15.0489
ltibia 43.4119
lfoot -18.7642 17.0473
ltoes -11.6839
294
root 10.5003 15.5664 1.82824 183.917 1.88962 -176.379
lowerback 19.1263 0.23385 -1.2877
upperback 8.36243 1.61083 -2.09693
thorax -1.66254 1.47288 -1.82932
lowerneck 1.96374 9.63424 10.4343
upperneck -20.1069 11.2333 -10.8299
head -5.05293 4.94903 -5.50695
rclavicle -2.22639e-014 3.18055e-015
rhumerus -47.3123 13.681 -95.7121
rradius 60.4399
rwrist -41.9023
rhand -32.814 -3.00878
rfingers 7.12502
rthumb -6.03468 -32.9028
lclavicle -2.22639e-014 3.18055e-015
lhumerus -30.931 9.05956 80.1201
lradius 32.9865
lwrist 8.69912
lhand -21.824 19.8073
lfingers 7.12502
lthumb 4.57869 49.7378
rfemur -21.8105 6.3031 25.9276
rtibia 39.1691
rfoot -15.9338 -25.8464
rtoes -20.1779
lfemur -20.5473 -10.2213 -14.9977
ltibia 40.4983
lfoot -19.0175 16.3898
ltoes -12.3785
295
root 10.502 15.6339 1.82372 183.978 2.02238 -176.574
lowerback 18.825 0.238163 -1.50349
upperback 8.31034 1.55679 -2.16266
thorax -1.56644 1.43116 -1.75664
lowerneck 1.42625 9.71406 10.3383
upperneck -19.912 11.2659 -10.8182
head -4.90541 4.95569 -5.44701
rclavicle -8.74653e-015 -7.95139e-016
rhumerus -47.1795 14.0276 -95.7542
rradius 60.7382
rwrist -41.3451
rhand -32.5701 -2.14758
rfingers 7.12502
rthumb -5.79916 -32.0482
lclavicle -8.74653e-015 -7.95139e-016
lhumerus -31.1141 8.06022 79.7069
lradius 34.1641
lwrist 8.6157
lhand -21.8256 18.9772
lfingers 7.12502
lthumb 4.57719 48.9078
rfemur -20.4774 6.23766 25.7475
rtibia 36.8593
rfoot -16.0084 -25.7438
rtoes -20.4084
lfemur -19.2574 -10.414 -15.0515
ltibia 37.7956
lfoot -19.9712 16.227
ltoes -13.1148
296
root 10.5006 15.6596 1.82144 184.101 2.17054 -176.819
lowerback 18.4819 0.267157 -1.72113
upperback 8.19815 1.52067 -2.24365
thorax -1.51183 1.39234 -1.70302
lowerneck 0.885197 9.76643 10.2654
upperneck -19.6477 11.2752 -10.782
head -4.73978 4.95217 -5.38034
rclavicle -2.42517e-014 -3.97569e-015
rhumerus -47.1378 14.2273 -95.6966
rradius 61.1947
rwrist -40.7176
rhand -32.4053 -1.35167
rfingers 7.12502
rthumb -5.64008 -31.2566
lclavicle -2.42517e-014 -3.97569e-015
lhumerus -31.5552 6.74167 79.408
lradius 35.9607
lwrist 9.11142
lhand -22.41 18.1732
lfingers 7.12502
lthumb 4.01288 48.1152
rfemur -19.3511 6.32684 25.5076
rtibia 34.8921
rfoot -16.5437 -25.7945
rtoes -20.7796
lfemur -18.1741 -10.8966 -15.1567
ltibia 35.4576
lfoot -21.2308 16.6852
ltoes -13.778
